<svg xmlns="http://www.w3.org/2000/svg" data-name="Layer 1" viewBox="0 0 128 128" width="512" height="512"><path d="M57.755 97.143h20.067l.764-8.146 4.523-3.428a45 45 0 00.72-8.114c-.077-3.973-.537-10.119-.537-10.119l-8.825-3.3-10.245-4.742-.575-11.749s-1.842-3.073-3.914-2.623-2.456 1.574-2.456 5.322-.537 14.091-.537 14.091l-6.6 4.5s-.767 11.843 0 12.667 1.918 2.923 4.834 4.122 3.3 3.073 3.3 4.8-.519 6.719-.519 6.719z" fill="#f9d6c6"/><path d="M83.983 66.233l-5.8-1.98a1.247 1.247 0 00-.756-.9L71.6 61a1.25 1.25 0 00-.85-1.1l-5.765-1.951v-10.3a4.557 4.557 0 00-9.115 0v15.245l-6.37 4.467a1.252 1.252 0 00-.532 1.023v10.8a8.59 8.59 0 005.1 7.707c2.52.938 2.622 2.807 2.593 6.3l-.005 2.7v.009a1.25 1.25 0 002.5-.007v-2.675c.028-3.315.061-7.074-4.22-8.668a6.118 6.118 0 01-3.472-5.363V69.034l4.4-3.086v4.614a1.25 1.25 0 102.5 0v-22.91a2.057 2.057 0 014.115 0v20.733a1.25 1.25 0 102.5 0v-7.8l4.121 1.4c0 .011.006.02.007.03s-.014.045-.014.07v9.485a1.25 1.25 0 102.5 0V63.7l4.132 1.663c0 .008.006.016.008.024a1.15 1.15 0 00-.025.124v8.72a1.25 1.25 0 102.5 0V66.9l4.115 1.406v12.96a4.629 4.629 0 01-2.008 3.813 9.224 9.224 0 00-3.866 7.663v3.148a1.25 1.25 0 102.5 0v-3.148a6.725 6.725 0 012.783-5.6 7.131 7.131 0 003.091-5.874V67.416a1.249 1.249 0 00-.84-1.183z" fill="#bba195"/><path d="M60.427 38.767a1.25 1.25 0 001.25-1.25v-5.41a1.25 1.25 0 10-2.5 0v5.409a1.25 1.25 0 001.25 1.251zm7.379 3.151a1.245 1.245 0 00.884-.366l3.824-3.824a1.25 1.25 0 10-1.768-1.767l-3.824 3.824a1.25 1.25 0 00.884 2.134zm1.738 6.196a1.25 1.25 0 001.25 1.25H76.2a1.25 1.25 0 000-2.5h-5.406a1.25 1.25 0 00-1.25 1.25zm-18.464-.23a1.25 1.25 0 00-1.25-1.25h-5.409a1.25 1.25 0 000 2.5h5.409a1.25 1.25 0 001.25-1.25zm1.02-6.495a1.25 1.25 0 001.767-1.768L50.04 35.8a1.25 1.25 0 00-1.768 1.768z" fill="#95f4fa"/></svg>